<svg width="30" height="30" viewBox="0 0 30 30" fill="none" xmlns="http://www.w3.org/2000/svg">
<g id="Group 503">
<rect id="Rectangle 45" width="30" height="30" rx="7.87302" fill="#6741FF"/>
<path id="Search" fill-rule="evenodd" clip-rule="evenodd" d="M20.243 18.1649L23.1882 20.5063C23.7738 21.0731 23.7738 21.9988 23.2071 22.5656C22.9237 22.8489 22.5459 23 22.168 23C21.7902 23 21.4124 22.8489 21.1101 22.5656L18.1649 20.2241C17.0314 20.9798 15.6712 21.4142 14.2166 21.4142C10.2305 21.4142 7 18.1838 7 14.1977C7 10.2116 10.2305 7 14.2166 7C18.2027 7 21.4332 10.2305 21.4332 14.2166C21.4332 15.6712 20.9987 17.0314 20.243 18.1649ZM14.2716 19.6793C17.2727 19.6793 19.7055 17.2464 19.7055 14.2453C19.7055 11.2442 17.2727 8.81133 14.2716 8.81133C11.2705 8.81133 8.83762 11.2442 8.83762 14.2453C8.83762 17.2464 11.2705 19.6793 14.2716 19.6793Z" fill="white"/>
</g>
</svg>
